<?xml version="1.0" encoding="UTF-8" standalone="no"?>
<!DOCTYPE svg PUBLIC "-//W3C//DTD SVG 1.1//EN"
 "http://www.w3.org/Graphics/SVG/1.1/DTD/svg11.dtd">
<!-- Generated by graphviz version 2.40.1 (20161225.0304)
 -->
<!-- Title: G Pages: 1 -->
<svg width="330pt" height="98pt"
 viewBox="0.00 0.00 330.03 98.00" xmlns="http://www.w3.org/2000/svg" xmlns:xlink="http://www.w3.org/1999/xlink">
<g id="graph0" class="graph" transform="scale(1 1) rotate(0) translate(4 94)">
<title>G</title>
<polygon fill="#ffffff" stroke="transparent" points="-4,4 -4,-94 326.027,-94 326.027,4 -4,4"/>
<!-- A0 -->
<g id="node1" class="node">
<title>A0</title>
<path fill="none" stroke="#000000" d="M42,-90C42,-90 12,-90 12,-90 6,-90 0,-84 0,-78 0,-78 0,-66 0,-66 0,-60 6,-54 12,-54 12,-54 42,-54 42,-54 48,-54 54,-60 54,-66 54,-66 54,-78 54,-78 54,-84 48,-90 42,-90"/>
<text text-anchor="middle" x="27" y="-69" font-family="Helvetica,sans-Serif" font-size="10.00" fill="#000000">z</text>
</g>
<!-- A1 -->
<g id="node2" class="node">
<title>A1</title>
<path fill="none" stroke="#000000" d="M176.2935,-90C176.2935,-90 146.2935,-90 146.2935,-90 140.2935,-90 134.2935,-84 134.2935,-78 134.2935,-78 134.2935,-66 134.2935,-66 134.2935,-60 140.2935,-54 146.2935,-54 146.2935,-54 176.2935,-54 176.2935,-54 182.2935,-54 188.2935,-60 188.2935,-66 188.2935,-66 188.2935,-78 188.2935,-78 188.2935,-84 182.2935,-90 176.2935,-90"/>
<text text-anchor="middle" x="161.2935" y="-69" font-family="Helvetica,sans-Serif" font-size="10.00" fill="#000000">x</text>
</g>
<!-- A0&#45;&gt;A1 -->
<g id="edge1" class="edge">
<title>A0&#45;&gt;A1</title>
<path fill="none" stroke="#000000" d="M54.1763,-72C74.2902,-72 101.9274,-72 124.0909,-72"/>
<polygon fill="#000000" stroke="#000000" points="134.1576,-72 124.1577,-76.5001 129.1576,-72 124.1576,-72.0001 124.1576,-72.0001 124.1576,-72.0001 129.1576,-72 124.1576,-67.5001 134.1576,-72 134.1576,-72"/>
<text text-anchor="middle" x="81.7185" y="-75" font-family="Helvetica,sans-Serif" font-size="10.00" fill="#000000">G(z)</text>
</g>
<!-- A2 -->
<g id="node3" class="node">
<title>A2</title>
<path fill="none" stroke="#000000" d="M310.027,-53C310.027,-53 280.027,-53 280.027,-53 274.027,-53 268.027,-47 268.027,-41 268.027,-41 268.027,-29 268.027,-29 268.027,-23 274.027,-17 280.027,-17 280.027,-17 310.027,-17 310.027,-17 316.027,-17 322.027,-23 322.027,-29 322.027,-29 322.027,-41 322.027,-41 322.027,-47 316.027,-53 310.027,-53"/>
<text text-anchor="middle" x="295.027" y="-32" font-family="Helvetica,sans-Serif" font-size="10.00" fill="#000000">y</text>
</g>
<!-- A1&#45;&gt;A2 -->
<g id="edge2" class="edge">
<title>A1&#45;&gt;A2</title>
<path fill="none" stroke="#000000" d="M188.3565,-64.5125C208.4771,-58.9457 236.1577,-51.2874 258.2788,-45.1671"/>
<polygon fill="#000000" stroke="#000000" points="268.0043,-42.4764 259.5663,-49.48 263.1853,-43.8097 258.3663,-45.143 258.3663,-45.143 258.3663,-45.143 263.1853,-43.8097 257.1664,-40.8059 268.0043,-42.4764 268.0043,-42.4764"/>
<text text-anchor="middle" x="240.5885" y="-56" font-family="Helvetica,sans-Serif" font-size="10.00" fill="#000000">D(x)</text>
</g>
<!-- A3 -->
<g id="node4" class="node">
<title>A3</title>
<path fill="none" stroke="#000000" d="M201.0069,-36C201.0069,-36 121.5801,-36 121.5801,-36 115.5801,-36 109.5801,-30 109.5801,-24 109.5801,-24 109.5801,-12 109.5801,-12 109.5801,-6 115.5801,0 121.5801,0 121.5801,0 201.0069,0 201.0069,0 207.0069,0 213.0069,-6 213.0069,-12 213.0069,-12 213.0069,-24 213.0069,-24 213.0069,-30 207.0069,-36 201.0069,-36"/>
<text text-anchor="middle" x="161.2935" y="-15" font-family="Helvetica,sans-Serif" font-size="10.00" fill="#000000">x (訓練データ)</text>
</g>
<!-- A3&#45;&gt;A2 -->
<g id="edge3" class="edge">
<title>A3&#45;&gt;A2</title>
<path fill="none" stroke="#000000" d="M213.4201,-23.5037C225.4542,-24.8772 238.1958,-26.4138 250.027,-28 252.564,-28.3401 255.179,-28.7062 257.8118,-29.0862"/>
<polygon fill="#000000" stroke="#000000" points="267.9263,-30.5954 257.3716,-33.5702 262.981,-29.8574 258.0358,-29.1195 258.0358,-29.1195 258.0358,-29.1195 262.981,-29.8574 258.6999,-24.6688 267.9263,-30.5954 267.9263,-30.5954"/>
<text text-anchor="middle" x="240.5885" y="-31" font-family="Helvetica,sans-Serif" font-size="10.00" fill="#000000">D(x)</text>
</g>
</g>
</svg>
